<svg width="512" height="512" viewBox="0 0 512 512" fill="none" xmlns="http://www.w3.org/2000/svg">
<rect width="512" height="512" rx="100" fill="#261B25"/>
<path d="M141.053 365.9C108.053 333.2 86.7531 307.1 76.8531 289.1C70.2531 278 67.8531 269.3 67.8531 261.5C67.8531 248.9 75.3531 240.2 90.3531 240.2C99.9531 240.2 107.753 244.4 114.953 250.7C120.653 244.1 123.053 236 123.053 225.8C123.053 218.6 121.853 211.7 119.453 206H57.9531V172.4H215.453V206H161.153C163.553 213.2 164.753 220.7 164.753 230.3C164.753 242.3 161.453 251.9 156.053 260C166.253 263 175.853 264.2 186.953 264.2C198.653 264.2 209.453 263.3 221.153 261.5L222.653 293.6C212.453 296.9 202.253 297.8 190.253 297.8C171.953 297.8 151.553 293.6 132.653 283.4C129.053 285.8 124.853 287.9 120.353 289.7C134.153 305.9 152.753 323.3 171.953 340.7L141.053 365.9ZM370.209 206H342.609V359H300.909V322.7C290.109 328.7 276.609 332.3 260.709 332.3C221.109 332.3 195.309 312.8 195.309 277.4C195.309 242.9 219.909 224.3 260.109 224.3C272.409 224.3 282.909 225.5 291.609 227.6L288.309 260.3C281.709 258.8 274.509 257.9 266.109 257.9C248.109 257.9 237.309 265.4 237.309 278.6C237.309 290.9 246.909 298.4 263.109 298.4C278.109 298.4 292.509 291.2 300.909 279.8V206H184.809V172.4H370.209V206ZM430.963 206V359H388.963V206H365.863V172.4H458.563V206H430.963Z" fill="#C59F61"/>
</svg>
